<?xml version="1.0" encoding="UTF-8" standalone="no"?>
<svg width="7px" height="7px" viewBox="0 0 7 7" version="1.1" xmlns="http://www.w3.org/2000/svg" xmlns:xlink="http://www.w3.org/1999/xlink" xmlns:sketch="http://www.bohemiancoding.com/sketch/ns">
    <!-- Generator: sketchtool 3.4 (381) - http://www.bohemiancoding.com/sketch -->
    <title>icon-mini-plus</title>
    <desc>Created with sketchtool.</desc>
    <defs></defs>
    <g id="Page-1" stroke="none" stroke-width="1" fill="none" fill-rule="evenodd" sketch:type="MSPage">
        <g id="Single" sketch:type="MSArtboardGroup" transform="translate(-983.000000, -335.000000)" fill="#808080">
            <g id="options" sketch:type="MSLayerGroup" transform="translate(900.000000, 181.000000)">
                <path d="M83.4231603,156.583988 L83.171875,156.582696 L83.171875,156.833984 L83.171875,157.554688 L83.171875,157.805331 L83.4225177,157.804687 L85.7018145,157.798827 L85.4511719,157.548828 L85.4511719,160.015625 L85.4511719,160.265625 L85.7011719,160.265625 L86.4746094,160.265625 L86.7246094,160.265625 L86.7246094,160.015625 L86.7246094,157.542969 L86.4758881,157.792965 L88.7669038,157.781247 L89.015625,157.779974 L89.015625,157.53125 L89.015625,156.857422 L89.015625,156.608697 L88.7669038,156.607425 L86.4758881,156.595706 L86.7246094,156.845703 L86.7246094,154.484375 L86.7246094,154.234375 L86.4746094,154.234375 L85.7011719,154.234375 L85.4511719,154.234375 L85.4511719,154.484375 L85.4511719,156.845703 L85.7024572,156.595706 L83.4231603,156.583988 L83.4231603,156.583988 Z" id="icon-mini-plus" sketch:type="MSShapeGroup"></path>
            </g>
        </g>
    </g>
</svg>