<svg width="16" height="16" viewBox="0 0 16 16" xmlns="http://www.w3.org/2000/svg"><title>Imported Layers Copy</title><path d="M0 6.512c0 3.592 2.895 6.5 6.48 6.5 1.098 0 2.127-.3 3.045-.793l3.255 3.23c.74.733 1.937.733 2.666 0 .74-.733.74-1.915 0-2.65L12.16 9.55c.49-.91.79-1.935.79-3.038C12.95 2.92 10.044 0 6.48 0 2.895 0 0 2.92 0 6.512m1.997-.03c0-2.488 2.007-4.505 4.483-4.505 2.466 0 4.473 2.017 4.473 4.505 0 2.49-2.007 4.495-4.473 4.495-2.476 0-4.483-2.006-4.483-4.495" fill-opacity=".25" fill="#9B9B9B" fill-rule="evenodd"/></svg>