<?xml version="1.0" encoding="UTF-8" standalone="no"?>
<svg width="12px" height="12px" viewBox="0 0 12 12" version="1.1" xmlns="http://www.w3.org/2000/svg" xmlns:xlink="http://www.w3.org/1999/xlink" xmlns:sketch="http://www.bohemiancoding.com/sketch/ns">
    <!-- Generator: sketchtool 3.4 (381) - http://www.bohemiancoding.com/sketch -->
    <title>icon-link</title>
    <desc>Created with sketchtool.</desc>
    <defs></defs>
    <g id="Page-1" stroke="none" stroke-width="1" fill="none" fill-rule="evenodd" sketch:type="MSPage">
        <g id="Single" sketch:type="MSArtboardGroup" transform="translate(-963.000000, -420.000000)" fill="#808080">
            <g id="options" sketch:type="MSLayerGroup" transform="translate(900.000000, 181.000000)">
                <path d="M70.5243396,242.891823 L66.8567708,246.558642 C66.6467668,246.769396 66.601766,247.069401 66.759269,247.226154 C66.9167719,247.384407 67.2167775,247.339406 67.4267815,247.129402 L71.0943502,243.461834 C71.3043542,243.25183 71.3418549,242.951824 71.1843519,242.793571 C71.1243508,242.73357 71.0343491,242.704319 70.9443474,242.704319 C70.8018448,242.704319 70.6518419,242.764321 70.5243396,242.891823 L70.5243396,242.891823 Z M68.626804,243.723589 C68.5068017,243.086827 68.6943052,242.396814 69.1968147,241.901804 L70.3593365,240.738533 C71.1618515,239.937518 72.4593758,239.928517 73.2543907,240.731032 C74.0569058,241.526797 74.0494056,242.824322 73.2468906,243.626837 L72.0843688,244.788609 C71.5893595,245.283618 70.8993466,245.478621 70.2618346,245.358619 L68.9868107,246.641893 C69.054312,247.204404 68.8743086,247.788665 68.4468006,248.223673 L67.3667803,249.303693 C66.6167663,250.046207 65.4167438,250.053707 64.6742299,249.312693 C63.9317159,248.569429 63.9392161,247.368657 64.68173,246.618643 L65.7617503,245.546123 C66.1967584,245.111115 66.7817694,244.939361 67.3442799,245.006863 L68.626804,243.723589 Z M69.961829,239.711763 L68.2142962,241.459296 C67.6517857,242.021807 67.4342816,242.786071 67.5392836,243.536085 C66.7892695,243.439333 66.016755,243.649337 65.4617446,244.211848 L63.7067117,245.966881 C62.7316934,246.941899 62.7691941,248.562679 63.7967134,249.581948 L64.4117249,250.20446 C65.4317441,251.223729 67.0592746,251.26948 68.0342929,250.286212 L69.7818256,248.538679 C70.3443362,247.976168 70.5618403,247.211904 70.4568383,246.46189 C71.2068523,246.566892 71.9793668,246.348638 72.5418774,245.786127 L74.2894101,244.038594 C75.2719286,243.056076 75.2269277,241.437546 74.2069086,240.408526 L73.5918971,239.793515 C73.0593871,239.261755 72.3693741,239 71.6943615,239 C71.0643497,239 70.4343379,239.231004 69.961829,239.711763 L69.961829,239.711763 Z" id="icon-link" sketch:type="MSShapeGroup"></path>
            </g>
        </g>
    </g>
</svg>