<?xml version="1.0" encoding="UTF-8" standalone="no"?>
<svg width="16px" height="15px" viewBox="0 0 16 15" version="1.1" xmlns="http://www.w3.org/2000/svg" xmlns:xlink="http://www.w3.org/1999/xlink" xmlns:sketch="http://www.bohemiancoding.com/sketch/ns">
    <!-- Generator: sketchtool 3.4 (381) - http://www.bohemiancoding.com/sketch -->
    <title>icon-user</title>
    <desc>Created with sketchtool.</desc>
    <defs></defs>
    <g id="Page-1" stroke="none" stroke-width="1" fill="none" fill-rule="evenodd" sketch:type="MSPage">
        <g id="New-Account---Error" sketch:type="MSArtboardGroup" transform="translate(-272.000000, -77.000000)" fill-opacity="0.25" fill="#9B9B9B">
            <path d="M280.261464,77 L280.080798,77 L279.729503,77 L279.719466,77 L279.699392,77 C277.200176,77.0103742 276.286808,79.5634553 276.497585,82.0740024 C276.718399,84.5845494 277.300546,85.8481223 277.520356,86.1500104 C277.702026,86.4093644 277.862618,86.6365585 277.892729,86.9488208 C277.802396,87.001729 277.7221,87.0722733 277.661878,87.2278857 C277.491249,87.6335155 277.300546,87.8627844 276.828806,87.9758628 C276.357067,88.0796044 275.433662,88.462411 274.439997,88.8047583 C273.446333,89.1367314 272.041152,89.5952694 272.041152,90.1015285 C272.041152,90.3930424 272.021078,91.0051179 272,91.4709178 C272.121448,91.8765475 272.472743,91.9792517 272.994668,92 L287.006336,92 C287.52826,91.9792517 287.869519,91.8765475 288,91.4812919 C287.979926,91.0051179 287.949815,90.4034166 287.949815,90.1015285 C287.949815,89.5952694 286.553667,89.1367314 285.561006,88.8047583 C284.567342,88.462411 283.6339,88.0796044 283.16216,87.9758628 C282.690421,87.8627844 282.499718,87.6335155 282.339126,87.2278857 C282.268866,87.0722733 282.18857,86.98928 282.098237,86.9384466 C282.128348,86.6365585 282.278903,86.4093644 282.45957,86.1500104 C282.680384,85.8481223 283.262531,84.5845494 283.483345,82.0740024 C283.704159,79.5634553 282.780754,77.0103742 280.291575,77 L280.280534,77 L280.261464,77 Z" id="icon-user" sketch:type="MSShapeGroup"></path>
        </g>
    </g>
</svg>